<svg width="34" height="42" viewBox="0 0 34 42" fill="none" xmlns="http://www.w3.org/2000/svg">
<path d="M33.3837 33.5706L22.8347 1.10121C22.5628 0.264294 21.664 -0.193506 20.8274 0.0780941L14.941 1.98993C15.578 3.95945 14.5033 6.06981 12.5402 6.70653C10.5707 7.34661 8.46036 6.27197 7.81693 4.30245L1.63004 6.31565C0.960844 6.53349 0.594884 7.25225 0.812164 7.92145L11.5583 40.997C11.7758 41.6665 12.4949 42.033 13.1644 41.8154L19.3507 39.8053C18.7137 37.8358 19.7883 35.7224 21.7581 35.082C23.7246 34.445 25.838 35.5196 26.4781 37.4894L32.3614 35.5776C33.1984 35.3057 33.6562 34.4069 33.3843 33.57L33.3837 33.5706ZM14.1435 25.3369H11.1352V14.5611H7.51928V11.6441H17.7398V14.5611H14.1435V25.3369ZM26.1214 19.0949H22.525V29.8707H19.5134V19.0949H15.8974V16.1778H26.1214V19.0949Z" fill="white"/>
</svg>
