<svg version="1.1" id="Layer_1" xmlns:x="ns_extend;" xmlns:i="ns_ai;" xmlns:graph="ns_graphs;" xmlns="http://www.w3.org/2000/svg" xmlns:xlink="http://www.w3.org/1999/xlink" x="0px" y="0px" viewBox="0 0 206 67" style="enable-background:new 0 0 206 67;" xml:space="preserve">
 <style type="text/css">
  .st0{fill:#FFFFFF;}
	.st1{filter:url(#Adobe_OpacityMaskFilter);}
	.st2{fill-rule:evenodd;clip-rule:evenodd;fill:#FFFFFF;}
	.st3{mask:url(#b_1_);fill:#FFFFFF;}
	.st4{filter:url(#Adobe_OpacityMaskFilter_1_);}
	.st5{mask:url(#d_1_);fill:#FFFFFF;}
	.st6{filter:url(#Adobe_OpacityMaskFilter_2_);}
	.st7{mask:url(#f_1_);fill:#FFFFFF;}
 </style>
 <metadata>
  <sfw xmlns="ns_sfw;">
   <slices>
   </slices>
   <sliceSourceBounds bottomLeftOrigin="true" height="66.9" width="206" x="0" y="0.2">
   </sliceSourceBounds>
  </sfw>
 </metadata>
 <g>
  <path class="st0" d="M59.6,38.8l3.7,2.1l-0.1,0.2c-1.5,2.9-4.7,4.7-8.1,4.7c-5.4,0-9.5-4.1-9.5-9.5c0-5.4,4.1-9.5,9.5-9.5
		c3.5,0,6.6,1.8,8.1,4.7l0.1,0.2l-3.7,2.2l-0.1-0.2C58.7,32,57,31,55,31c-3,0-5.2,2.3-5.2,5.3c0,3,2.2,5.3,5.2,5.3
		c2,0,3.6-1,4.5-2.6L59.6,38.8C59.6,38.8,59.6,38.8,59.6,38.8z">
  </path>
  <g transform="translate(195.094 26.779)">
   <defs>
    <filter id="Adobe_OpacityMaskFilter" filterUnits="userSpaceOnUse" x="1.2" y="0.2" width="9.7" height="18.4">
     <feColorMatrix type="matrix" values="1 0 0 0 0  0 1 0 0 0  0 0 1 0 0  0 0 0 1 0">
     </feColorMatrix>
    </filter>
   </defs>
   <mask maskUnits="userSpaceOnUse" x="1.2" y="0.2" width="9.7" height="18.4" id="b_1_">
    <g class="st1">
     <path id="a_1_" class="st2" d="M1.2,0.2h9.7v18.4H1.2V0.2z">
     </path>
    </g>
   </mask>
   <path class="st3" d="M10.9,0.2v4.6l-0.3,0C9.1,4.7,7.7,5.1,6.8,5.9c-0.9,0.8-1.3,2-1.3,3.5v9.1H1.2V0.5h4.3v2.2
			c1.1-1.6,2.9-2.6,5.2-2.6L10.9,0.2L10.9,0.2z">
   </path>
  </g>
  <path class="st0" d="M87.6,34.6c0.6-2.4,2.4-3.9,5-3.9c2.4,0,4.2,1.4,4.7,3.9H87.6z M92.7,26.8c-5.5,0-9.5,4-9.5,9.5
		c0,5.6,4,9.5,9.8,9.5c3.4,0,6.2-1.4,7.9-4l0.1-0.2l-3.6-2.1l-0.1,0.2c-0.9,1.3-2.5,2.1-4.3,2.1c-2.7,0-4.7-1.4-5.3-3.7h13.9l0-0.2
		c0.1-0.5,0.1-1.1,0.1-1.6C101.7,30.9,97.8,26.8,92.7,26.8L92.7,26.8z">
  </path>
  <g>
   <defs>
    <filter id="Adobe_OpacityMaskFilter_1_" filterUnits="userSpaceOnUse" x="16.6" y="19.1" width="176.2" height="26.7">
     <feColorMatrix type="matrix" values="1 0 0 0 0  0 1 0 0 0  0 0 1 0 0  0 0 0 1 0">
     </feColorMatrix>
    </filter>
   </defs>
   <mask maskUnits="userSpaceOnUse" x="16.6" y="19.1" width="176.2" height="26.7" id="d_1_">
    <g class="st4">
     <path id="c_1_" class="st2" d="M0,66.8h206V0H0V66.8z">
     </path>
    </g>
   </mask>
   <path class="st5" d="M157.2,45.4h4.3V27.3h-4.3V45.4z M111.3,27.3h4.4v4.1h-4.4v8.2c0,0.7,0.1,1.1,0.4,1.4
			c0.6,0.5,1.8,0.5,3.7,0.4l0.3,0v3.9l-0.2,0c-0.9,0.1-1.7,0.2-2.4,0.2c-2,0-3.5-0.4-4.4-1.3c-1.1-0.9-1.6-2.5-1.6-4.6v-8.2h-3.2
			v-4.1h3.2v-3.8l4.3-1.3V27.3L111.3,27.3L111.3,27.3z M165.9,45.4h4.3V19.1h-4.3V45.4L165.9,45.4z M135,24.6h-6.9v20.8h-4.5V24.6
			h-7v-4.4H135V24.6z M37.9,45.4h4.3V27.3h-4.3L37.9,45.4L37.9,45.4z M42.7,22.4c0,1.4-1.2,2.7-2.7,2.7c-1.4,0-2.7-1.2-2.7-2.7
			c0-1.5,1.2-2.7,2.7-2.7C41.5,19.8,42.7,20.9,42.7,22.4 M162,22.4c0,1.4-1.2,2.7-2.7,2.7c-1.4,0-2.7-1.2-2.7-2.7
			c0-1.5,1.2-2.7,2.7-2.7C160.8,19.8,162,20.9,162,22.4 M183.2,41.6c-3,0-5.2-2.3-5.2-5.3s2.3-5.3,5.2-5.3c3,0,5.3,2.3,5.3,5.3
			C188.5,39.4,186.2,41.6,183.2,41.6 M183.2,26.8c-5.4,0-9.5,4.2-9.5,9.5c0,5.3,4.2,9.5,9.5,9.5c5.4,0,9.5-4.2,9.5-9.5
			C192.8,31,188.6,26.8,183.2,26.8 M143,41.7c-3.1,0-5.3-2.3-5.3-5.4c0-3.1,2.2-5.4,5.3-5.4s5.3,2.3,5.3,5.4
			C148.4,39.4,146.1,41.7,143,41.7z M148.4,27.3v2.1c-1.5-1.7-3.5-2.5-5.9-2.5c-5,0-9,4.2-9,9.5c0,5.2,4,9.5,9,9.5
			c2.4,0,4.5-0.9,5.9-2.5v2.1h4.3V27.3L148.4,27.3C148.4,27.3,148.4,27.3,148.4,27.3z M16.6,20.2H35v4.4h-6.9v20.8h-4.5V24.6h-7
			V20.2z M74.3,36.1l8.2,9.2h-5.2l-6.9-7.7v7.7h-4.3V20.2h4.3v14.4l6.5-7.4h5.3L74.3,36.1L74.3,36.1z">
   </path>
  </g>
  <g>
   <defs>
    <filter id="Adobe_OpacityMaskFilter_2_" filterUnits="userSpaceOnUse" x="0" y="0" width="49.8" height="66.9">
     <feColorMatrix type="matrix" values="1 0 0 0 0  0 1 0 0 0  0 0 1 0 0  0 0 0 1 0">
     </feColorMatrix>
    </filter>
   </defs>
   <mask maskUnits="userSpaceOnUse" x="0" y="0" width="49.8" height="66.9" id="f_1_">
    <g class="st6">
     <path id="e_1_" class="st2" d="M0,66.8h206V0H0V66.8z">
     </path>
    </g>
   </mask>
   <path class="st7" d="M17.6,66.8c-1,0-1.9-0.7-2.2-1.6L0.1,11.5c-0.2-0.6-0.1-1.2,0.2-1.7c0.3-0.5,0.8-0.9,1.3-1.1l8.3-2.4
			c1-0.3,2.2,0.2,2.6,1.2c1,2.1,3.4,3.2,5.7,2.5c2.3-0.6,3.7-2.8,3.5-5.1c-0.1-1.1,0.6-2.1,1.6-2.4l8.3-2.4c1.2-0.3,2.4,0.3,2.8,1.5
			c0,0,0,0,0,0L37.8,14c0.2,0.5-0.2,1.1-0.7,1.3s-1.1-0.2-1.3-0.7L32.3,2.2c0-0.1-0.1-0.2-0.2-0.1l-8.3,2.4c-0.1,0-0.1,0.1-0.1,0.2
			C24.1,8,22,11.1,18.8,12c-3.2,0.9-6.6-0.6-8.1-3.6c0-0.1-0.1-0.1-0.2-0.1l-8.3,2.4c-0.1,0-0.1,0.1-0.1,0.2l15.4,53.8
			c0,0.1,0.1,0.2,0.2,0.1c0,0,0,0,0,0l8.3-2.4c0.1,0,0.1-0.1,0.1-0.2c-0.4-3.3,1.7-6.4,4.9-7.4c3.2-0.9,6.6,0.6,8.1,3.6
			c0,0.1,0.1,0.1,0.2,0.1l8.3-2.4c0.1,0,0.1-0.1,0.1-0.2l-2.1-7.5c-0.2-0.5,0.1-1.1,0.7-1.3s1.1,0.1,1.3,0.7c0,0,0,0.1,0,0.1
			l2.1,7.5c0.2,0.6,0.1,1.2-0.2,1.7c-0.3,0.5-0.8,0.9-1.3,1.1l-8.3,2.4c-1,0.3-2.2-0.2-2.6-1.2c-1-2.1-3.4-3.2-5.7-2.5
			c-2.3,0.6-3.7,2.8-3.5,5.1c0.1,1.1-0.6,2.1-1.6,2.4l-8.3,2.4C18,66.8,17.8,66.8,17.6,66.8">
   </path>
  </g>
 </g>
</svg>